<?xml version="1.0" encoding="utf-8"?>
<!-- Generator: Adobe Illustrator 25.3.1, SVG Export Plug-In . SVG Version: 6.00 Build 0)  -->
<svg version="1.1" id="Layer_1" xmlns="http://www.w3.org/2000/svg" xmlns:xlink="http://www.w3.org/1999/xlink" x="0px" y="0px"
	 viewBox="0 0 404.5 86.5" style="enable-background:new 0 0 404.5 86.5;" xml:space="preserve">
<style type="text/css">
	.st0{fill:#FFFFFF;}
	.st1{fill:#F15F29;}
	.st2{fill:#FFFFFF;}
</style>
<g>
	<g>
		<polygon class="st0" points="108.3,14.2 84.4,72.8 92.5,72.8 112,24.2 123.2,51.7 103.9,51.7 101.1,58.9 126.1,58.9 131.7,72.8 
			140.2,72.8 115.9,14.2 		"/>
		<path class="st0" d="M169.8,47.7h-16.3c-2.7,0-3.9-1.1-3.9-3.5V41c0-2.7,1.3-3.9,4.3-3.9h23.9v-6.7h-25.3
			c-6.7,0-10.2,3.4-10.2,9.8v4.6c0,6,3.4,9.2,9.8,9.2h16.3c2.7,0,3.8,1.1,3.8,3.5v4.6c0,1.8-0.5,3.9-4.6,3.9h-25v6.7h26.5
			c6.8,0,10.5-3.4,10.5-9.9v-5.9C179.6,50.9,176.2,47.7,169.8,47.7z"/>
		<path class="st0" d="M185.3,44.3v14.6c0,9.2,4.6,13.9,13.6,13.9h19v-7.4h-17.9c-4.9,0-7.2-2.4-7.2-7.4V45.2c0-5,2.3-7.3,7.2-7.3
			h17.9v-7.5h-19C189.8,30.4,185.3,35.1,185.3,44.3z"/>
		<rect x="224.6" y="13.7" class="st0" width="7.5" height="10.8"/>
		<rect x="224.6" y="30.8" class="st0" width="7.5" height="42"/>
		<rect x="240" y="30.8" class="st0" width="7.5" height="42"/>
		<rect x="240" y="13.7" class="st0" width="7.5" height="10.8"/>
		<path class="st0" d="M284.1,14.2h-28.7v58.6h7.7V21.8h20.3c6,0,8.7,2.8,8.7,8.9v25.5c0,6.1-2.8,8.9-8.7,8.9h-17.2v7.6h17.8
			c10.5,0,15.8-5.4,15.8-16.1V30.3C299.9,19.6,294.6,14.2,284.1,14.2z"/>
		<path class="st0" d="M334.2,30.4h-13.8c-9,0-13.6,4.7-13.6,13.9v14.6c0,9.2,4.6,13.9,13.6,13.9h13.8c9,0,13.6-4.7,13.6-13.9V44.3
			C347.7,35.1,343.2,30.4,334.2,30.4z M340.3,45.2V58c0,5.1-2.3,7.4-7.2,7.4h-11.6c-4.9,0-7.2-2.4-7.2-7.4V45.2c0-5,2.3-7.3,7.2-7.3
			h11.6C338,37.9,340.3,40.2,340.3,45.2z"/>
		<path class="st0" d="M369.3,37.9h17.9v-7.5h-19c-9,0-13.6,4.7-13.6,13.9v14.6c0,9.2,4.6,13.9,13.6,13.9h19v-7.4h-17.9
			c-4.9,0-7.2-2.4-7.2-7.4V45.2C362.1,40.2,364.4,37.9,369.3,37.9z"/>
	</g>
	<path class="st1" d="M68.8,31.2c5.5,5.5,5.5,14.4,0,19.9L50.9,69c-5.5,5.5-14.4,5.5-19.9,0L13,51.1c-5.5-5.5-5.5-14.4,0-19.9
		l17.9-17.9c5.5-5.5,14.4-5.5,19.9,0L68.8,31.2z"/>
	<g>
		<g>
			<rect x="22.2" y="34.2" class="st2" width="37.3" height="4.5"/>
		</g>
		<g>
			<rect x="22.2" y="43.6" class="st2" width="37.3" height="4.5"/>
		</g>
	</g>
</g>
<g>
	<g>
		<path class="st0" d="M393.7,23.8c-1.1,0-2.1-0.2-2.9-0.7c-0.8-0.5-1.5-1.2-2-2.1c-0.5-0.9-0.7-1.9-0.7-3.1s0.2-2.2,0.7-3.1
			c0.5-0.9,1.1-1.6,2-2.1c0.8-0.5,1.8-0.7,2.9-0.7c1.1,0,2,0.2,2.9,0.7c0.8,0.5,1.5,1.2,2,2.1c0.5,0.9,0.7,1.9,0.7,3.1
			s-0.2,2.2-0.7,3.1c-0.5,0.9-1.1,1.6-2,2.1C395.8,23.6,394.8,23.8,393.7,23.8z M393.7,23c1,0,1.9-0.2,2.6-0.7
			c0.7-0.5,1.2-1.1,1.6-1.8c0.3-0.8,0.5-1.6,0.5-2.6s-0.2-1.8-0.5-2.6c-0.3-0.8-0.9-1.4-1.6-1.8c-0.7-0.5-1.6-0.7-2.6-0.7
			c-1,0-1.9,0.2-2.6,0.7c-0.7,0.5-1.2,1.1-1.6,1.8s-0.5,1.6-0.5,2.6s0.2,1.8,0.5,2.6c0.3,0.8,0.9,1.4,1.6,1.8
			C391.8,22.8,392.7,23,393.7,23z M391.6,20.7v-5.8h2.1c0.6,0,1.1,0.1,1.5,0.4c0.3,0.3,0.5,0.7,0.5,1.3c0,0.4-0.1,0.7-0.3,1
			c-0.2,0.3-0.4,0.5-0.7,0.7l1.3,2.4h-1.2l-1.1-2.1h-1v2.1H391.6z M392.7,17.6h0.9c0.3,0,0.5-0.1,0.7-0.2s0.2-0.4,0.2-0.7
			s-0.1-0.5-0.2-0.6c-0.2-0.2-0.4-0.2-0.7-0.2h-0.9V17.6z"/>
	</g>
</g>
</svg>
